# xmcd CD database file
#
# Track frame offsets:
#	150
#	56472
#	88491
#	106877
#	128989
#	173742
#	211430
#	230474
#
# Disc length: 3317 seconds
#
# Revision: 0
# Processed by: cddbd v1.4PL0 Copyright (c) Steve Scherf et al.
# Submitted via: CDex 1.50
#
DISCID=6c0cf308
DTITLE=Stevie Ray Vaughan - Live in Japan [CD2]
DYEAR=1900
DGENRE=Blues
TTITLE0=Lenny 
TTITLE1=Testify/Third Stone from the Sun
TTITLE2=Testify
TTITLE3=Pride And Joy
TTITLE4=Texas Flood
TTITLE5=Little Wing
TTITLE6=Third Stone From The Sun
TTITLE7=Tell Me  
EXTD=
EXTT0=
EXTT1=
EXTT2=
EXTT3=
EXTT4=
EXTT5=
EXTT6=
EXTT7=
PLAYORDER=
